<mxfile host="app.diagrams.net" modified="2024-04-08T00:00:36.795Z" agent="Mozilla/5.0 (X11; Ubuntu; Linux x86_64; rv:124.0) Gecko/20100101 Firefox/124.0" version="24.2.2" etag="HoAj4UiXXK8QHHGu4nCL" type="github">
  <diagram name="Page-1" id="-WETygOvhYKLJvWQvo6D">
    <mxGraphModel>
      <root>
        <mxCell id="0" />
        <mxCell id="1" parent="0" />
      </root>
    </mxGraphModel>
  </diagram>
</mxfile>
